<?xml version="1.0" encoding="UTF-8" standalone="no"?>
<!-- Created with Inkscape (http://www.inkscape.org/) -->

<svg
   width="33.844028mm"
   height="11.485989mm"
   viewBox="0 0 33.844028 11.485989"
   id="SVGRoot"
   version="1.1"
   inkscape:version="1.4 (86a8ad7, 2024-10-11)"
   sodipodi:docname="SilhoNET_Logos.svg"
   xmlns:inkscape="http://www.inkscape.org/namespaces/inkscape"
   xmlns:sodipodi="http://sodipodi.sourceforge.net/DTD/sodipodi-0.dtd"
   xmlns="http://www.w3.org/2000/svg"
   xmlns:svg="http://www.w3.org/2000/svg">
  <sodipodi:namedview
     inkscape:document-units="px"
     inkscape:zoom="8"
     inkscape:cx="142.3125"
     inkscape:cy="105.5625"
     id="namedview1"
     pagecolor="#ffffff"
     bordercolor="#000000"
     borderopacity="0.25"
     inkscape:showpageshadow="2"
     inkscape:pageopacity="0.0"
     inkscape:pagecheckerboard="true"
     inkscape:deskcolor="#d1d1d1"
     inkscape:window-width="2560"
     inkscape:window-height="1506"
     inkscape:window-x="-11"
     inkscape:window-y="-11"
     inkscape:window-maximized="1"
     inkscape:current-layer="layer4"
     showguides="false"
     showgrid="false">
    <sodipodi:guide
       position="5.8594181,11.025435"
       orientation="0,-1"
       id="guide4"
       inkscape:locked="false" />
    <sodipodi:guide
       position="19.611886,0.69014769"
       orientation="0,-1"
       id="guide5"
       inkscape:locked="false" />
    <sodipodi:guide
       position="7.6686101,10.694189"
       orientation="0,-1"
       id="guide6"
       inkscape:locked="false" />
    <sodipodi:guide
       position="16.253615,3.4930787"
       orientation="0,-1"
       id="guide7"
       inkscape:locked="false" />
    <sodipodi:guide
       position="13.438813,3.9316047"
       orientation="0,-1"
       id="guide19"
       inkscape:locked="false" />
    <inkscape:grid
       id="grid22"
       units="px"
       originx="-19.62913"
       originy="-20.152452"
       spacingx="0.26458334"
       spacingy="0.26458334"
       empcolor="#0099e5"
       empopacity="0.30196078"
       color="#0099e5"
       opacity="0.14901961"
       empspacing="5"
       enabled="true"
       visible="false" />
    <sodipodi:guide
       position="20.62061,-4.4441123"
       orientation="0,-1"
       id="guide26"
       inkscape:locked="false" />
    <sodipodi:guide
       position="20.45145,3.3903157"
       orientation="0,-1"
       id="guide27"
       inkscape:locked="false" />
    <sodipodi:guide
       position="20.438711,-4.4441113"
       orientation="1,0"
       id="guide28"
       inkscape:locked="false" />
    <sodipodi:guide
       position="20.438711,-4.8942923"
       orientation="0,-1"
       id="guide29"
       inkscape:locked="false" />
    <sodipodi:guide
       position="20.438711,3.6670197"
       orientation="0,-1"
       id="guide30"
       inkscape:locked="false" />
    <sodipodi:guide
       position="23.442145,-4.4441113"
       orientation="1,0"
       id="guide31"
       inkscape:locked="false" />
    <sodipodi:guide
       position="24.754726,1.1739707"
       orientation="1,0"
       id="guide32"
       inkscape:locked="false" />
    <sodipodi:guide
       position="29.50069,-4.4440943"
       orientation="1,0"
       id="guide33"
       inkscape:locked="false" />
    <inkscape:page
       x="0"
       y="6.7920311e-16"
       width="33.844028"
       height="11.48599"
       id="page2"
       margin="0"
       bleed="0" />
  </sodipodi:namedview>
  <defs
     id="defs1">
    <inkscape:path-effect
       effect="fillet_chamfer"
       id="path-effect21-6"
       is_visible="true"
       lpeversion="1"
       nodesatellites_param="F,0,0,1,0,0,0,1 @ F,0,0,1,0,0,0,1 @ F,0,0,1,0,0,0,1 @ F,0,0,1,0,0,0,1 @ F,0,0,1,0,0,0,1 @ F,0,0,1,0,0,0,1 @ F,0,0,1,0,0,0,1 @ F,0,0,1,0,0,0,1 @ F,0,0,1,0,0,0,1 @ F,0,0,1,0,0,0,1 @ F,0,0,1,0,0,0,1 @ F,0,0,1,0,0,0,1 @ F,0,0,1,0,0,0,1 @ F,0,0,1,0,0,0,1 @ F,0,0,1,0,0,0,1 @ F,0,0,1,0,0,0,1 @ F,0,0,1,0,0,0,1 @ F,0,0,1,0,0,0,1 @ F,0,0,1,0,0,0,1 @ F,0,0,1,0,0,0,1 @ F,0,0,1,0,0,0,1 @ F,0,0,1,0,0,0,1 @ F,0,0,1,0,0,0,1 @ F,0,0,1,0,0,0,1 @ F,0,0,1,0,0,0,1 @ F,0,0,1,0,0,0,1 @ F,0,0,1,0,0,0,1 @ F,0,0,1,0,0,0,1 @ F,0,0,1,0,0,0,1 @ F,0,0,1,0,0,0,1 @ F,0,0,1,0,0,0,1 @ F,0,0,1,0,0,0,1 @ F,0,0,1,0,0,0,1 @ F,0,0,1,0,0,0,1 @ F,0,0,1,0,0,0,1 @ F,0,0,1,0,0,0,1 @ F,0,0,1,0,0,0,1 @ F,0,0,1,0,0,0,1 @ F,0,0,1,0,0,0,1 @ F,0,0,1,0,0,0,1 @ F,0,0,1,0,0,0,1 @ F,0,0,1,0,0,0,1 @ F,0,0,1,0,0,0,1 @ F,0,0,1,0,0,0,1 @ F,0,0,1,0,0,0,1 @ F,0,0,1,0,0,0,1 @ F,0,0,1,0,0,0,1 @ F,0,0,1,0,0,0,1 @ F,0,0,1,0,0,0,1 @ F,0,0,1,0,0,0,1 @ F,0,0,1,0,0,0,1 @ F,0,0,1,0,0,0,1 @ F,0,0,1,0,0,0,1 | F,0,0,1,0,0,0,1 @ F,0,0,1,0,0.23207886,0,1 @ F,0,0,1,0,0,0,1 @ F,0,0,1,0,0,0,1 @ F,0,0,1,0,0,0,1 @ F,0,0,1,0,0,0,1 @ F,0,0,1,0,0,0,1 @ F,0,0,1,0,0,0,1 @ F,0,0,1,0,0,0,1 | F,0,0,1,0,0,0,1 @ F,0,0,1,0,0,0,1 @ F,0,0,1,0,0,0,1 @ F,0,0,1,0,0,0,1 @ F,0,0,1,0,0,0,1 @ F,0,0,1,0,0,0,1 | F,0,0,1,0,0,0,1 @ F,0,0,1,0,0,0,1 @ F,0,0,1,0,0,0,1 @ F,0,0,1,0,0,0,1 @ F,0,0,1,0,0,0,1 @ F,0,0,1,0,0,0,1"
       radius="0"
       unit="px"
       method="auto"
       mode="F"
       chamfer_steps="1"
       flexible="false"
       use_knot_distance="true"
       apply_no_radius="true"
       apply_with_radius="true"
       only_selected="false"
       hide_knots="false" />
  </defs>
  <g
     inkscape:label="SILHO"
     inkscape:groupmode="layer"
     id="layer1"
     style="display:inline"
     transform="translate(-19.62913,-20.152452)">
    <g
       id="g23"
       style="display:inline"
       inkscape:export-filename="silhonet_silho_text.svg"
       inkscape:export-xdpi="96"
       inkscape:export-ydpi="96">
      <g
         id="g11"
         transform="translate(1.8181575,-0.23171543)"
         style="fill:#cccccc"
         inkscape:label="SILHO_SHAPE"
         inkscape:export-filename="silhonet_silho_text.png"
         inkscape:export-xdpi="96"
         inkscape:export-ydpi="96">
        <path
           id="path10"
           style="font-weight:bold;font-size:50.8085px;line-height:0.9;font-family:'Tw Cen MT Condensed';-inkscape-font-specification:'Tw Cen MT Condensed,  Bold';letter-spacing:-1.32578px;white-space:pre;display:inline;fill:#cccccc;stroke-width:0.966505"
           inkscape:label="SILHO_TOP"
           d="m 23.67021,20.844928 c -1.726665,0 -3.750676,0.886701 -3.750676,2.733167 -0.07218,2.168942 1.909071,2.032092 3.31246,3.153812 0.529167,0.451997 0.79375,0.862652 0.79375,1.231967 0,0.248047 -0.104731,0.457508 -0.314193,0.628385 -0.203949,0.170879 -0.460264,0.256315 -0.768945,0.256315 -0.61482,0 -1.683662,-0.375503 -2.369882,-1.134814 -0.137615,-0.152274 -0.374801,-0.208791 -0.552937,-0.106454 l -1.482597,0.851628 c -0.250766,0.144062 -0.325677,0.457697 -0.153996,0.690397 0.599368,0.812398 1.702632,2.001631 3.468005,2.030884 0.503659,0.0083 2.683198,1e-6 3.628203,0 h 1.554944 2.794661 1.554944 5.293217 2.27583 c 0.17966,-1.42e-4 0.325188,-0.145902 0.325045,-0.325562 v -2.712496 c 0,-0.210055 0.170284,-0.380338 0.380339,-0.380338 h 1.30638 c 0.210055,0 0.380338,0.170283 0.380338,0.380338 v 2.693893 c -8.6e-5,0.190113 0.154052,0.344251 0.344165,0.344165 h 2.434477 v -2.315104 c 0.161152,0.528574 0.376634,0.96265 0.649056,1.298112 0.666972,0.8158 1.55994,1.223697 2.678907,1.223697 1.09692,0 1.989884,-0.394117 2.678906,-1.182356 0.694531,-0.79375 1.041797,-2.229665 1.041797,-4.307748 0,-1.014236 -0.07992,-1.281059 -0.239779,-1.892908 -0.15985,-0.617361 -0.413412,-1.132746 -0.760677,-1.546158 -0.341753,-0.418923 -0.713825,-0.735873 -1.116211,-0.950847 -0.402389,-0.220486 -0.931553,-0.330729 -1.5875,-0.330729 -0.793751,0 -1.452451,0.187413 -1.976107,0.56224 -0.518144,0.374826 -0.934311,0.901236 -1.248502,1.579231 -0.04331,0.09345 -0.08255,0.183669 -0.11989,0.273885 v -2.415356 h -2.399853 c -0.209033,-8.6e-5 -0.378589,0.169238 -0.378789,0.378271 v 3.242697 h -2.083593 v -3.210657 c 9.3e-5,-0.227236 -0.183083,-0.412027 -0.410311,-0.413928 l -2.380734,-0.01964 v 7.224365 h -1.744079 c -0.365673,1.82e-4 -0.662155,-0.296299 -0.661975,-0.661972 v -6.163965 c -7.9e-5,-0.207168 -0.168003,-0.375092 -0.375171,-0.375171 h -2.305286 -5.904549 v 0.0072 C 24.929023,20.924031 24.387999,20.86561 23.67021,20.844928 Z m 0.256315,2.116667 c 0.492549,0 0.88757,0.273102 1.400522,0.843593 0.08538,0.09495 0.25626,0.173916 0.384434,0.173916 h 0.807134 c 0.284809,5.1e-5 0.51568,0.230922 0.515731,0.515731 v 3.595129 c 0,0.158482 -0.128324,0.287036 -0.286805,0.287321 -0.01129,-0.428168 -0.102178,-0.821186 -0.237711,-1.192692 -0.573561,-1.572179 -3.517615,-1.885343 -3.517615,-3.445785 0,-0.198437 0.09371,-0.377583 0.28112,-0.537435 0.192926,-0.159853 0.410656,-0.239778 0.65319,-0.239778 z m 23.668323,0.867647 c 1.26259,0.02913 1.257862,1.165502 1.262456,2.150256 -0.01573,1.102758 0.176676,2.642976 -1.322917,2.811198 -1.593504,-0.07824 -1.405599,-1.72979 -1.405599,-2.9099 0,-1.836893 0.430728,-2.021081 1.339453,-2.05052 0.04341,-0.0014 0.08588,-0.002 0.126607,-0.001 z m -17.42891,0.149862 h 0.905371 v 4.398181 h -0.82579 c -0.230052,4.4e-5 -0.416556,-0.18646 -0.416512,-0.416512 v -3.645256 c 1.79e-4,-0.185924 0.151007,-0.33652 0.336931,-0.336413 z"
           inkscape:path-effect="#path-effect21-6"
           inkscape:original-d="m 23.67021,20.844928 c -1.726665,0 -3.750676,0.886701 -3.750676,2.733167 -0.07218,2.168942 1.909071,2.032092 3.31246,3.153812 0.529167,0.451997 0.79375,0.862652 0.79375,1.231967 0,0.248047 -0.104731,0.457508 -0.314193,0.628385 -0.203949,0.170879 -0.460264,0.256315 -0.768945,0.256315 -0.61482,0 -1.683662,-0.375503 -2.369882,-1.134814 -0.137615,-0.152274 -0.374801,-0.208791 -0.552937,-0.106454 l -1.482597,0.851628 c -0.250766,0.144062 -0.325677,0.457697 -0.153996,0.690397 0.599368,0.812398 1.702632,2.001631 3.468005,2.030884 0.503659,0.0083 2.683198,1e-6 3.628203,0 h 1.554944 2.794661 1.554944 5.293217 2.27583 a 0.32530268,0.32530268 0 0 0 0.325045,-0.325562 v -2.712496 a 0.38033862,0.38033862 0 0 1 0.380339,-0.380338 h 1.30638 a 0.38033855,0.38033855 0 0 1 0.380338,0.380338 v 2.693893 a 0.34401013,0.34401013 0 0 0 0.344165,0.344165 h 2.434477 v -2.315104 c 0.161152,0.528574 0.376634,0.96265 0.649056,1.298112 0.666972,0.8158 1.55994,1.223697 2.678907,1.223697 1.09692,0 1.989884,-0.394117 2.678906,-1.182356 0.694531,-0.79375 1.041797,-2.229665 1.041797,-4.307748 0,-1.014236 -0.07992,-1.281059 -0.239779,-1.892908 -0.15985,-0.617361 -0.413412,-1.132746 -0.760677,-1.546158 -0.341753,-0.418923 -0.713825,-0.735873 -1.116211,-0.950847 -0.402389,-0.220486 -0.931553,-0.330729 -1.5875,-0.330729 -0.793751,0 -1.452451,0.187413 -1.976107,0.56224 -0.518144,0.374826 -0.934311,0.901236 -1.248502,1.579231 -0.04331,0.09345 -0.08255,0.183669 -0.11989,0.273885 V 21.176174 H 41.723889 A 0.37863316,0.37863316 0 0 0 41.3451,21.554445 v 3.242697 h -2.083593 v -3.210657 a 0.41377255,0.41377255 0 0 0 -0.410311,-0.413928 l -2.380734,-0.01964 v 7.224365 H 34.726383 A 0.66164573,0.66164573 0 0 1 34.064408,27.71531 v -6.163965 a 0.37531465,0.37531465 0 0 0 -0.375171,-0.375171 h -2.305286 -5.904549 v 0.0072 C 24.929023,20.924031 24.387999,20.86561 23.67021,20.844928 Z m 0.256315,2.116667 c 0.540192,0 0.963076,0.32849 1.552877,1.017509 h 1.039213 a 0.51582287,0.51582287 0 0 1 0.515731,0.515731 v 3.595129 a 0.2873209,0.2873209 0 0 1 -0.286805,0.287321 c -0.01129,-0.428168 -0.102178,-0.821186 -0.237711,-1.192692 -0.573561,-1.572179 -3.517615,-1.885343 -3.517615,-3.445785 0,-0.198437 0.09371,-0.377583 0.28112,-0.537435 0.192926,-0.159853 0.410656,-0.239778 0.65319,-0.239778 z m 23.668323,0.867647 c 1.26259,0.02913 1.257862,1.165502 1.262456,2.150256 -0.01573,1.102758 0.176676,2.642976 -1.322917,2.811198 -1.593504,-0.07824 -1.405599,-1.72979 -1.405599,-2.9099 0,-1.836893 0.430728,-2.021081 1.339453,-2.05052 0.04341,-0.0014 0.08588,-0.002 0.126607,-0.001 z m -17.42891,0.149862 h 0.905371 v 4.398181 h -0.82579 a 0.41643202,0.41643202 0 0 1 -0.416512,-0.416512 v -3.645256 a 0.33673655,0.33673655 0 0 1 0.336931,-0.336413 z" />
        <path
           id="path10-7"
           style="font-weight:bold;font-size:50.8085px;line-height:0.9;font-family:'Tw Cen MT Condensed';-inkscape-font-specification:'Tw Cen MT Condensed,  Bold';letter-spacing:-1.32578px;white-space:pre;display:inline;fill:#f0f0f0;fill-opacity:1;stroke-width:0.966505"
           inkscape:label="SILHO_TOP_DUPE"
           sodipodi:type="inkscape:offset"
           inkscape:radius="0.18700613"
           inkscape:original="M 23.669922 20.845703 C 21.943257 20.845703 19.919922 21.731659 19.919922 23.578125 C 19.847742 25.747067 21.829033 25.610702 23.232422 26.732422 C 23.761589 27.184419 24.025391 27.595529 24.025391 27.964844 C 24.025391 28.212891 23.9204 28.42092 23.710938 28.591797 C 23.506988 28.762676 23.25204 28.847656 22.943359 28.847656 C 22.328539 28.847656 21.258486 28.472202 20.572266 27.712891 C 20.434651 27.560617 20.197667 27.505085 20.019531 27.607422 L 18.537109 28.458984 C 18.286343 28.603046 18.211131 28.915737 18.382812 29.148438 C 18.98218 29.960836 20.086189 31.150434 21.851562 31.179688 C 22.355221 31.187987 24.533511 31.179689 25.478516 31.179688 L 27.035156 31.179688 L 29.828125 31.179688 L 31.384766 31.179688 L 36.677734 31.179688 L 38.953125 31.179688 C 39.132785 31.179545 39.277487 31.035129 39.277344 30.855469 L 39.277344 28.142578 C 39.277344 27.932523 39.448148 27.761719 39.658203 27.761719 L 40.964844 27.761719 C 41.174899 27.761719 41.345703 27.932523 41.345703 28.142578 L 41.345703 30.835938 C 41.345618 31.02605 41.499341 31.179773 41.689453 31.179688 L 44.123047 31.179688 L 44.123047 28.865234 C 44.284199 29.393808 44.501016 29.8286 44.773438 30.164062 C 45.44041 30.979862 46.332205 31.386719 47.451172 31.386719 C 48.548092 31.386719 49.441837 30.993317 50.130859 30.205078 C 50.82539 29.411328 51.171875 27.974567 51.171875 25.896484 C 51.171875 24.882248 51.093453 24.615755 50.933594 24.003906 C 50.773744 23.386545 50.51914 22.870443 50.171875 22.457031 C 49.830122 22.038108 49.459027 21.722787 49.056641 21.507812 C 48.654252 21.287326 48.124697 21.175781 47.46875 21.175781 C 46.674999 21.175781 46.015843 21.363454 45.492188 21.738281 C 44.974044 22.113107 44.558332 22.640364 44.244141 23.318359 C 44.200831 23.411809 44.160387 23.501581 44.123047 23.591797 L 44.123047 21.175781 L 41.724609 21.175781 C 41.515577 21.175695 41.345903 21.345655 41.345703 21.554688 L 41.345703 24.796875 L 39.261719 24.796875 L 39.261719 21.585938 C 39.261812 21.358702 39.07879 21.173776 38.851562 21.171875 L 36.470703 21.152344 L 36.470703 28.376953 L 34.726562 28.376953 C 34.36089 28.377135 34.064273 28.080517 34.064453 27.714844 L 34.064453 21.550781 C 34.064374 21.343613 33.896622 21.175861 33.689453 21.175781 L 31.384766 21.175781 L 25.478516 21.175781 L 25.478516 21.183594 C 24.928137 20.924251 24.387711 20.866385 23.669922 20.845703 z M 23.925781 22.960938 C 24.41833 22.960938 24.81322 23.234196 25.326172 23.804688 C 25.41155 23.899643 25.582764 23.978516 25.710938 23.978516 L 26.519531 23.978516 C 26.804341 23.978566 27.035106 24.209331 27.035156 24.494141 L 27.035156 28.089844 C 27.035157 28.248325 26.906528 28.376669 26.748047 28.376953 C 26.736757 27.948785 26.645299 27.557053 26.509766 27.185547 C 25.936205 25.613368 22.992188 25.298723 22.992188 23.738281 C 22.992188 23.539844 23.086028 23.361024 23.273438 23.201172 C 23.466363 23.041319 23.683247 22.960938 23.925781 22.960938 z M 47.46875 23.830078 C 47.51216 23.828678 47.554976 23.829078 47.595703 23.830078 C 48.858293 23.859208 48.852828 24.995715 48.857422 25.980469 C 48.841692 27.083227 49.034749 28.622794 47.535156 28.791016 C 45.941652 28.712776 46.128906 27.060969 46.128906 25.880859 C 46.128906 24.043966 46.560025 23.859517 47.46875 23.830078 z M 30.166016 23.978516 L 31.072266 23.978516 L 31.072266 28.376953 L 30.246094 28.376953 C 30.016042 28.376997 29.828081 28.190989 29.828125 27.960938 L 29.828125 24.316406 C 29.828304 24.130482 29.980092 23.978408 30.166016 23.978516 z "
           d="m 23.669922,20.658203 c -0.895317,0 -1.860953,0.226715 -2.621094,0.703125 -0.758576,0.47543 -1.314127,1.222436 -1.316406,2.210938 -4.8e-5,0.0014 4.6e-5,0.0025 0,0.0039 -1e-6,6.8e-4 0,0.0013 0,0.002 -0.01788,0.567449 0.101532,1.008478 0.320312,1.351562 0.219616,0.344395 0.531512,0.584318 0.876953,0.78125 0.690883,0.393865 1.520267,0.636215 2.185547,1.167969 0.506247,0.433684 0.722657,0.806619 0.722657,1.085938 0,0.195277 -0.07052,0.33919 -0.246094,0.482422 a 0.18702483,0.18702483 0 0 0 0,0.002 c -0.168539,0.14121 -0.374079,0.210937 -0.648438,0.210937 -0.538687,0 -1.590482,-0.361951 -2.232422,-1.072265 -0.194058,-0.21473 -0.519564,-0.295158 -0.785156,-0.142579 l -1.482422,0.851563 c -0.338109,0.19424 -0.445624,0.64479 -0.210937,0.962891 0.612722,0.830498 1.767178,2.076797 3.615234,2.107421 0.514593,0.0085 2.686949,10e-7 3.63086,0 h 1.55664 2.792969 1.556641 5.292968 2.275391 c 0.279794,-2.22e-4 0.511942,-0.231566 0.511719,-0.511718 v -2.712891 c 0,-0.10868 0.08468,-0.193359 0.193359,-0.193359 h 1.306641 c 0.10868,0 0.193359,0.08468 0.193359,0.193359 v 2.693359 c -1.3e-4,0.290965 0.240285,0.531381 0.53125,0.53125 h 2.433594 a 0.18702483,0.18702483 0 0 0 0.1875,-0.1875 V 29.78125 c 0.09793,0.179575 0.198764,0.352729 0.318359,0.5 a 0.18702483,0.18702483 0 0 0 0,0.002 c 0.69939,0.855452 1.657969,1.291016 2.822266,1.291016 1.141632,0 2.098845,-0.420738 2.820312,-1.246094 0.747878,-0.854718 1.087891,-2.332771 1.087891,-4.431641 0,-1.023875 -0.08471,-1.329227 -0.244141,-1.939453 -0.165333,-0.638538 -0.432095,-1.181856 -0.798828,-1.61914 l -0.002,-0.002 C 49.960713,21.90282 49.572477,21.571606 49.146484,21.34375 h -0.002 c -0.439487,-0.240368 -0.999416,-0.355469 -1.675781,-0.355469 -0.823228,0 -1.52591,0.196794 -2.085938,0.597656 -0.433661,0.313712 -0.778153,0.756075 -1.072265,1.263672 v -1.673828 a 0.18702483,0.18702483 0 0 0 -0.1875,-0.1875 h -2.398438 c -0.310441,-1.27e-4 -0.566109,0.256274 -0.566406,0.566406 v 3.054688 h -1.708984 v -3.023438 c 1.34e-4,-0.32769 -0.267865,-0.598819 -0.595703,-0.601562 l -2.38086,-0.01953 a 0.18702483,0.18702483 0 0 0 -0.189453,0.1875 v 7.037109 h -1.556641 c -0.264493,1.32e-4 -0.474739,-0.210113 -0.474609,-0.474609 v -6.164063 c -1.17e-4,-0.30808 -0.25442,-0.562381 -0.5625,-0.5625 h -2.304687 -5.90625 c -0.556546,-0.24425 -1.110385,-0.310129 -1.802735,-0.330078 a 0.18702483,0.18702483 0 0 0 -0.0059,0 z m 0.255859,2.490234 c 0.423384,0 0.760821,0.224165 1.261719,0.78125 0.134063,0.149102 0.318546,0.236329 0.523437,0.236329 h 0.808594 c 0.183815,3.2e-5 0.328093,0.14431 0.328125,0.328125 v 3.1875 c -0.04237,-0.192738 -0.09653,-0.380778 -0.162109,-0.560547 -0.32071,-0.879094 -1.251,-1.356316 -2.054688,-1.824219 -0.401843,-0.233951 -0.778338,-0.464687 -1.041015,-0.716797 -0.262677,-0.25211 -0.410157,-0.510489 -0.410157,-0.841797 0,-0.13948 0.05637,-0.259363 0.214844,-0.394531 0.162916,-0.134282 0.330953,-0.195313 0.53125,-0.195313 z m 23.548828,0.869141 c 0.0383,-0.0012 0.07845,-9.51e-4 0.117188,0 0.575223,0.01327 0.793788,0.235022 0.93164,0.595703 0.137853,0.360682 0.144185,0.874129 0.146485,1.367188 -0.0079,0.563093 0.0317,1.210642 -0.09766,1.708984 -0.06475,0.249448 -0.168705,0.45648 -0.330079,0.611328 -0.158125,0.151732 -0.379463,0.260232 -0.710937,0.300781 -0.356944,-0.02017 -0.594338,-0.120378 -0.763672,-0.271484 -0.171863,-0.153362 -0.281591,-0.367045 -0.351562,-0.628906 -0.139943,-0.523722 -0.09961,-1.220367 -0.09961,-1.820313 0,-0.903816 0.117502,-1.371354 0.289063,-1.58789 0.08578,-0.108268 0.183258,-0.166972 0.324218,-0.208985 0.140961,-0.04201 0.323579,-0.05924 0.544922,-0.06641 z m -17.308593,0.148438 h 0.71875 v 4.023437 h -0.638672 c -0.129231,2.5e-5 -0.230494,-0.100345 -0.230469,-0.228516 v -3.644531 c 8.1e-5,-0.08424 0.0665,-0.150439 0.150391,-0.15039 z" />
        <path
           id="path22"
           style="-inkscape-font-specification:'Tw Cen MT Condensed,  Bold';display:inline;fill:#d5d5d5;fill-opacity:1"
           inkscape:label="BORDER_PATH"
           d="m 31.335916,20.715742 c -1.251608,0.01568 -2.318339,0.467124 -2.730583,0.725537 -0.819045,0.513419 -1.449789,1.365252 -1.453141,2.460832 -0.01844,0.610302 0.110273,1.121023 0.363285,1.517737 0.254625,0.399244 0.612282,0.668982 0.980819,0.879016 0.735228,0.419018 1.535483,0.65733 2.142505,1.140499 0.4676,0.40344 0.617016,0.718728 0.617016,0.855762 0,0.112021 -0.01571,0.155254 -0.136426,0.253731 l -0.0021,0.0021 -0.0021,0.0021 c -0.111949,0.0938 -0.239374,0.144177 -0.458886,0.144177 -0.398132,0 -1.348555,-0.308158 -1.925981,-0.886767 -0.153604,-0.153918 -0.341501,-0.28077 -0.568441,-0.364836 -0.226939,-0.08407 -0.522098,-0.132611 -0.816488,0.0155 -0.46787,0.235387 -0.948807,0.61257 -1.382861,0.910022 -0.439209,0.300982 -0.590581,0.943056 -0.255798,1.396814 0.633865,0.859126 1.870895,2.193428 3.849894,2.226221 0.53193,0.0088 2.694295,1e-6 3.636471,0 h 1.554944 2.794661 1.554944 5.2927 2.275314 c 0.44086,0 0.808737,-0.36736 0.808736,-0.80822 v -2.60966 h 1.101741 v 2.591573 c 0,0.45121 0.37458,0.826306 0.82579,0.826307 h 2.918168 v -1.033012 c 0.737,0.785635 1.704474,1.240234 2.845821,1.240234 1.212673,0 2.270058,-0.463811 3.042709,-1.347721 0.832157,-0.951037 1.160136,-2.493121 1.160136,-4.625041 0,-1.039623 -0.09721,-1.4084 -0.255799,-2.015381 -0.174476,-0.672471 -0.458448,-1.257426 -0.857312,-1.732711 -0.373195,-0.456683 -0.788998,-0.817132 -1.25367,-1.066085 -0.499433,-0.27366 -1.110469,-0.390673 -1.820561,-0.390673 -0.869818,0 -1.640116,0.210066 -2.257743,0.652156 v 0.0021 h -0.0021 c -0.254151,0.183853 -0.438641,0.447184 -0.601514,0.757577 v -1.4118 h -2.882511 c -0.470248,1e-6 -0.861447,0.392747 -0.861447,0.862996 v 2.757971 h -1.117244 v -2.726448 c 0,-0.48687 -0.403531,-0.892531 -0.890385,-0.896587 l -2.867525,-0.02532 v 7.2285 H 42.58836 A 0.3269079,0.3269079 0 0 1 42.261765,27.89783 v -6.01462 c 0,-0.468419 -0.39096,-0.859378 -0.859379,-0.859379 h -2.304769 -5.984648 c -0.601196,-0.23214 -1.20824,-0.315121 -1.777152,-0.307992 z m 0.04806,0.460437 c 0.717789,0.02068 1.258813,0.07914 1.809192,0.338481 v -0.0072 h 5.904549 2.305286 c 0.207168,7.9e-5 0.375091,0.168003 0.375171,0.375171 v 6.163965 c -1.81e-4,0.365673 0.296302,0.662157 0.661975,0.661975 h 1.744079 v -7.224365 l 2.380734,0.01964 c 0.227228,0.0019 0.410404,0.186692 0.410311,0.413928 v 3.210657 h 2.083593 v -3.242697 c 2e-4,-0.209032 0.169756,-0.378357 0.378789,-0.378271 h 2.399853 v 2.415356 c 0.03734,-0.09022 0.07658,-0.180435 0.11989,-0.273885 0.314191,-0.677995 0.730358,-1.204405 1.248502,-1.579231 0.523656,-0.374827 1.182356,-0.56224 1.976107,-0.56224 0.655947,0 1.185111,0.110243 1.5875,0.330729 0.402386,0.214974 0.774458,0.531924 1.116211,0.950847 0.347265,0.413412 0.600827,0.928797 0.760677,1.546158 0.159859,0.611849 0.239779,0.878672 0.239779,1.892908 0,2.078083 -0.347266,3.513998 -1.041797,4.307748 -0.689022,0.788239 -1.581986,1.182356 -2.678906,1.182356 -1.118967,0 -2.011935,-0.407897 -2.678907,-1.223697 C 52.214142,30.15905 51.99866,29.724974 51.837508,29.1964 v 2.315104 H 49.40303 c -0.190112,8.5e-5 -0.34425,-0.154053 -0.344165,-0.344165 v -2.693893 c 0,-0.210055 -0.170283,-0.380338 -0.380338,-0.380338 h -1.30638 c -0.210056,-1e-6 -0.380339,0.170283 -0.380339,0.380338 v 2.712496 c 1.43e-4,0.179661 -0.145384,0.32542 -0.325045,0.325562 h -2.27583 -5.293217 -1.554944 -2.794661 -1.554944 c -0.945005,1e-6 -3.124544,0.0083 -3.628203,0 -1.765373,-0.02925 -2.868637,-1.218486 -3.468005,-2.030884 -0.171681,-0.2327 -0.09677,-0.546335 0.153996,-0.690397 l 1.482596,-0.851628 c 0.178136,-0.102337 0.415323,-0.04582 0.552938,0.106454 0.68622,0.759311 1.755062,1.134814 2.369882,1.134814 0.308681,0 0.564996,-0.08544 0.768945,-0.256315 0.209462,-0.170877 0.314193,-0.380338 0.314193,-0.628385 0,-0.369315 -0.264583,-0.77997 -0.79375,-1.231967 -1.403389,-1.12172 -3.38464,-0.98487 -3.31246,-3.153812 0,-1.846466 2.024011,-2.733167 3.750676,-2.733167 z m 0.256315,2.116667 c -0.242534,0 -0.460264,0.07992 -0.65319,0.239778 -0.18741,0.159852 -0.28112,0.338998 -0.28112,0.537435 0,1.560442 2.944054,1.873606 3.517615,3.445785 0.135533,0.371506 0.226421,0.764524 0.237711,1.192692 0.158482,-2.85e-4 0.286805,-0.128839 0.286805,-0.287321 v -3.595129 c -5.1e-5,-0.28481 -0.230922,-0.515681 -0.515731,-0.515731 h -0.807186 c -0.128174,0 -0.299095,-0.0792 -0.384473,-0.17415 -0.512952,-0.570491 -0.907882,-0.843359 -1.400431,-0.843359 z m 5.17e-4,0.482658 c 0.172141,0 0.299614,0.04078 0.486275,0.167948 0.186662,0.127165 0.416714,0.351626 0.699182,0.681612 l 0.144694,0.167949 h 1.294495 v 2.027266 c -0.479044,-0.634854 -1.151467,-1.087431 -1.773019,-1.449007 -0.398671,-0.23192 -0.755553,-0.455786 -0.982886,-0.673861 -0.227334,-0.218076 -0.319877,-0.389198 -0.319877,-0.627352 0,-0.04568 0.0012,-0.07522 0.109038,-0.167948 0.114395,-0.09375 0.207337,-0.126607 0.342098,-0.126607 z m 23.667806,0.384989 c -0.04073,-10e-4 -0.0832,-3.66e-4 -0.126607,0.001 -0.908725,0.02944 -1.339453,0.213627 -1.339453,2.05052 0,1.18011 -0.187905,2.83166 1.405599,2.9099 1.499593,-0.168222 1.307187,-1.70844 1.322917,-2.811198 -0.0046,-0.984754 1.34e-4,-2.121126 -1.262456,-2.150256 z m -17.428911,0.149862 c -0.185924,-1.08e-4 -0.336751,0.150489 -0.33693,0.336413 v 3.645256 c -4.4e-5,0.230051 0.186461,0.416556 0.416512,0.416512 h 0.82579 v -4.398181 z m 17.317807,0.334346 c 0.03413,-0.0011 0.06729,-7.71e-4 0.09922,0 0.486483,0.01122 0.556379,0.125156 0.664042,0.406177 0.107664,0.281022 0.124819,0.767489 0.127124,1.261422 -0.0079,0.580366 0.02075,1.206987 -0.08992,1.632975 -0.0556,0.214011 -0.13673,0.366021 -0.248047,0.472839 -0.10382,0.09962 -0.261591,0.169792 -0.517281,0.206706 -0.275551,-0.02222 -0.445865,-0.08811 -0.555005,-0.185518 -0.116861,-0.104298 -0.203493,-0.259238 -0.26355,-0.484208 -0.120112,-0.449939 -0.08785,-1.128376 -0.08785,-1.74408 0,-0.880674 0.132254,-1.285675 0.224793,-1.402498 0.04627,-0.05841 0.07795,-0.07991 0.1757,-0.109038 0.09775,-0.02913 0.258655,-0.04791 0.470772,-0.05478 z m -17.17208,0.148312 h 0.277502 v 3.431832 H 38.02543 Z"
           transform="translate(-7.7137649,-0.331251)" />
      </g>
      <path
         id="path19"
         style="fill:#d5d5d5;fill-opacity:1;stroke:none;stroke-width:0.767292;stroke-opacity:1"
         inkscape:label="L_SHADOW_RIGHT"
         d="m 44.047285,28.269803 v 0.438733 h 0.136942 0.206706 v 2.80293 h 0.504879 l -0.0067,-2.803447 a 0.43920747,0.43920747 0 0 0 -0.43925,-0.438216 h -0.05891 -0.206706 z"
         transform="translate(-5.8956074,-0.56296643)" />
      <path
         id="path14"
         style="fill:#d5d5d5;fill-opacity:1;stroke:none;stroke-width:0.767292"
         inkscape:label="I_SHADOW_TOP_RIGHT"
         d="m 33.202109,20.661788 v 0.282671 0.100252 2.702677 h -0.125574 -0.187069 -0.207222 v 0.528133 h 0.207222 0.187069 0.265617 a 0.36724641,0.36724641 0 0 0 0.367419,-0.367419 v -2.863391 -0.100252 -0.282671 z" />
      <path
         id="path15"
         style="fill:#d5d5d5;fill-opacity:1;stroke:none;stroke-width:0.767292"
         inkscape:label="I_SHADOW_BOTTOM_RIGHT"
         d="m 32.719967,27.706837 v 0.438733 h 0.169499 0.108004 0.204639 v 2.802929 h 0.482657 V 28.14557 A 0.43852634,0.43852634 0 0 0 33.246034,27.706837 H 32.99747 32.889466 Z" />
      <path
         style="fill:#d5d5d5;fill-opacity:1;stroke:none;stroke-width:0.767292"
         d="m 28.557983,27.989106 c 0.103027,2.442935 -0.796246,2.959188 -1.511642,2.959189 h 0.884497 c 1.357594,-0.248074 1.293488,-2.656257 0.921665,-4.214731 -0.0174,0.17605 -0.120442,1.240044 -0.29452,1.255542 z"
         id="path16"
         sodipodi:nodetypes="ccccc" />
      <path
         style="fill:#d5d5d5;fill-opacity:1;stroke:none;stroke-width:0.767292;stroke-opacity:1"
         d="m 27.083619,30.948295 c 0.04727,-0.002 0.0507,0.0056 0.285996,-0.03786 l 0.561223,0.03786 -0.150622,0.0648 -0.70073,-0.0052 z"
         id="path24"
         sodipodi:nodetypes="cccccc" />
    </g>
  </g>
  <g
     inkscape:groupmode="layer"
     id="layer4"
     inkscape:label="NET"
     style="display:none"
     transform="translate(-19.62913,-20.152452)">
    <path
       style="fill:#000000;fill-opacity:1;stroke:none;stroke-width:0.767292;stroke-opacity:1"
       d="M 40.249741,37.703126 V 29.13724"
       id="path25" />
    <g
       id="g33"
       transform="translate(0,0.2676912)"
       inkscape:export-filename="silhonet_net_text.png"
       inkscape:export-xdpi="96"
       inkscape:export-ydpi="96">
      <path
         id="path27-7-8-7"
         style="fill:#000000;fill-opacity:1;stroke:#808080;stroke-width:0.272;stroke-dasharray:none;stroke-opacity:1"
         d="m 54.137601,26.875057 a 0.51149148,0.51149148 0 0 0 -0.470888,0.31412 h -1.955768 v -0.0041 h -0.413347 v 0.0041 h -0.07926 -1.130834 -1.416772 v 0.413348 h 1.416772 1.130834 0.07926 v 8.022112 a 0.51149148,0.51149148 0 0 0 -0.302377,0.466191 0.51149148,0.51149148 0 0 0 0.511399,0.511401 0.51149148,0.51149148 0 0 0 0.511401,-0.511401 0.51149148,0.51149148 0 0 0 -0.307076,-0.469127 v -8.019176 h 1.963401 a 0.51149148,0.51149148 0 0 0 0.463255,0.295331 0.51149148,0.51149148 0 0 0 0.5114,-0.511399 0.51149148,0.51149148 0 0 0 -0.5114,-0.5114 z" />
      <path
         id="path27-7-8"
         style="fill:#000000;fill-opacity:1;stroke:none;stroke-width:0.871788;stroke-opacity:1"
         d="m 54.137601,26.875058 a 0.51149148,0.51149148 0 0 0 -0.470888,0.31412 h -1.955768 v -0.0041 h -0.413347 v 0.0041 h -0.07926 -1.130834 -1.416772 v 0.413348 h 1.416772 1.130834 0.07926 v 8.022112 a 0.51149148,0.51149148 0 0 0 -0.302377,0.466191 0.51149148,0.51149148 0 0 0 0.511399,0.5114 0.51149148,0.51149148 0 0 0 0.511401,-0.5114 0.51149148,0.51149148 0 0 0 -0.307076,-0.469127 v -8.019176 h 1.963401 a 0.51149148,0.51149148 0 0 0 0.463255,0.295331 0.51149148,0.51149148 0 0 0 0.5114,-0.511399 0.51149148,0.51149148 0 0 0 -0.5114,-0.5114 z" />
      <path
         id="rect25-2-9"
         style="fill:#000000;fill-opacity:1;stroke:#808080;stroke-width:0.272;stroke-dasharray:none;stroke-opacity:1"
         d="m 44.699304,26.875058 a 0.51149148,0.51149148 0 0 0 -0.5114,0.5114 0.51149148,0.51149148 0 0 0 0.311772,0.4703 v 3.574516 0.413348 3.75888 a 0.51149148,0.51149148 0 0 0 -0.358744,0.487327 0.51149148,0.51149148 0 0 0 0.511401,0.5114 0.51149148,0.51149148 0 0 0 0.467951,-0.304727 h 2.953908 a 0.51149148,0.51149148 0 0 0 0.467364,0.304727 0.51149148,0.51149148 0 0 0 0.511401,-0.5114 0.51149148,0.51149148 0 0 0 -0.511401,-0.511401 0.51149148,0.51149148 0 0 0 -0.467364,0.304727 H 45.120284 A 0.51149148,0.51149148 0 0 0 44.913023,35.65106 v -3.806438 h 3.161169 a 0.51149148,0.51149148 0 0 0 0.467364,0.304727 0.51149148,0.51149148 0 0 0 0.511401,-0.511401 0.51149148,0.51149148 0 0 0 -0.511401,-0.511399 0.51149148,0.51149148 0 0 0 -0.467364,0.304725 h -3.161169 v -3.5798 a 0.51149148,0.51149148 0 0 0 0.250122,-0.248948 h 3.044329 a 0.51149148,0.51149148 0 0 0 0.463254,0.295331 0.51149148,0.51149148 0 0 0 0.511399,-0.511399 0.51149148,0.51149148 0 0 0 -0.511399,-0.5114 0.51149148,0.51149148 0 0 0 -0.470887,0.31412 h -3.028476 a 0.51149148,0.51149148 0 0 0 -0.472061,-0.31412 z" />
      <path
         id="rect25-4"
         style="fill:#000000;fill-opacity:1;stroke:#808080;stroke-width:0.272;stroke-dasharray:none;stroke-opacity:1"
         d="m 39.263396,26.875058 a 0.51149148,0.51149148 0 0 0 -0.5114,0.5114 0.51149148,0.51149148 0 0 0 0.303553,0.467364 v 7.770229 a 0.51149148,0.51149148 0 0 0 -0.303553,0.466778 0.51149148,0.51149148 0 0 0 0.5114,0.5114 0.51149148,0.51149148 0 0 0 0.511988,-0.5114 0.51149148,0.51149148 0 0 0 -0.306488,-0.468539 v -7.316368 l 2.841177,7.380366 a 0.51149148,0.51149148 0 0 0 -0.20139,0.404541 0.51149148,0.51149148 0 0 0 0.511401,0.5114 0.51149148,0.51149148 0 0 0 0.5114,-0.5114 0.51149148,0.51149148 0 0 0 -0.250123,-0.439769 v -7.79665 a 0.51149148,0.51149148 0 0 0 0.304727,-0.467952 0.51149148,0.51149148 0 0 0 -0.5114,-0.5114 0.51149148,0.51149148 0 0 0 -0.511401,0.5114 0.51149148,0.51149148 0 0 0 0.304727,0.467952 v 7.006944 l -2.772481,-7.201288 a 0.51149148,0.51149148 0 0 0 0.07985,-0.273608 0.51149148,0.51149148 0 0 0 -0.511987,-0.5114 z" />
      <path
         id="rect25"
         style="fill:#000000;fill-opacity:1;stroke:none;stroke-width:0.871788;stroke-opacity:1"
         d="m 39.263396,26.875058 a 0.51149148,0.51149148 0 0 0 -0.5114,0.5114 0.51149148,0.51149148 0 0 0 0.303553,0.467364 v 7.770229 a 0.51149148,0.51149148 0 0 0 -0.303553,0.466778 0.51149148,0.51149148 0 0 0 0.5114,0.5114 0.51149148,0.51149148 0 0 0 0.511988,-0.5114 0.51149148,0.51149148 0 0 0 -0.306488,-0.468539 v -7.316368 l 2.841177,7.380366 a 0.51149148,0.51149148 0 0 0 -0.20139,0.404541 0.51149148,0.51149148 0 0 0 0.511401,0.5114 0.51149148,0.51149148 0 0 0 0.5114,-0.5114 0.51149148,0.51149148 0 0 0 -0.250123,-0.439769 v -7.79665 a 0.51149148,0.51149148 0 0 0 0.304727,-0.467952 0.51149148,0.51149148 0 0 0 -0.5114,-0.5114 0.51149148,0.51149148 0 0 0 -0.511401,0.5114 0.51149148,0.51149148 0 0 0 0.304727,0.467952 v 7.006944 l -2.772481,-7.201288 a 0.51149148,0.51149148 0 0 0 0.07985,-0.273608 0.51149148,0.51149148 0 0 0 -0.511987,-0.5114 z" />
      <path
         id="rect25-2"
         style="fill:#000000;fill-opacity:1;stroke:none;stroke-width:0.871788;stroke-opacity:1"
         d="m 44.699304,26.875058 a 0.51149148,0.51149148 0 0 0 -0.5114,0.5114 0.51149148,0.51149148 0 0 0 0.311772,0.4703 v 3.574516 0.413348 3.75888 a 0.51149148,0.51149148 0 0 0 -0.358744,0.487327 0.51149148,0.51149148 0 0 0 0.511401,0.5114 0.51149148,0.51149148 0 0 0 0.467951,-0.304727 h 2.953908 a 0.51149148,0.51149148 0 0 0 0.467364,0.304727 0.51149148,0.51149148 0 0 0 0.511401,-0.5114 0.51149148,0.51149148 0 0 0 -0.511401,-0.511401 0.51149148,0.51149148 0 0 0 -0.467364,0.304727 H 45.120284 A 0.51149148,0.51149148 0 0 0 44.913023,35.65106 v -3.806438 h 3.161169 a 0.51149148,0.51149148 0 0 0 0.467364,0.304727 0.51149148,0.51149148 0 0 0 0.511401,-0.511401 0.51149148,0.51149148 0 0 0 -0.511401,-0.511399 0.51149148,0.51149148 0 0 0 -0.467364,0.304725 h -3.161169 v -3.5798 a 0.51149148,0.51149148 0 0 0 0.250122,-0.248948 h 3.044329 a 0.51149148,0.51149148 0 0 0 0.463254,0.295331 0.51149148,0.51149148 0 0 0 0.511399,-0.511399 0.51149148,0.51149148 0 0 0 -0.511399,-0.5114 0.51149148,0.51149148 0 0 0 -0.470887,0.31412 h -3.028476 a 0.51149148,0.51149148 0 0 0 -0.472061,-0.31412 z" />
    </g>
  </g>
</svg>
